Coordinates
version=1
nRows=22
nColumns=33
inDegrees=yes

Units are S.I. units (second, meters, Newtons, ...)
Angles are in degrees.

endheader
time	ground_thorax_rot_x	ground_thorax_rot_y	ground_thorax_rot_z	ground_thorax_tx	ground_thorax_ty	ground_thorax_tz	clav_prot_r	clav_elev_r	scapula_abduction_r	scapula_elevation_r	scapula_upward_rot_r	scapula_winging_r	shoulder_elv_r	plane_of_elev_r	axial_rot_r	elbow_flexion_r	pro_sup_r	wrist_flex_r	wrist_dev_r	clav_prot_l	clav_elev_l	scapula_abduction_l	scapula_elevation_l	scapula_upward_rot_l	scapula_winging_l	shoulder_elv_l	plane_of_elev_l	axial_rot_l	elbow_flexion_l	pro_sup_l	wrist_flex_l	wrist_dev_l	
4.1200	24.759921	35.597984	50.872424	83.519723	775.843909	-43.993414	13.178872	36.232053	28.584259	45.000000	-45.000000	-439.619915	-3710.749470	159.545143	18.082376	0.998796	165.518427	11.310670	13.297541	-15.494682	-45.000000	-32.396915	45.000000	-45.000000	-4222.610071	-95.795629	136.726716	-132.149519	1068.900157	401.219473	12.460835	-13.546654	
4.1300	24.874455	35.709378	50.641673	83.011324	775.393216	-44.220105	13.112569	36.254661	28.506918	45.000000	-45.000000	-439.680090	-3710.714906	159.528614	18.410273	1.056228	165.296013	11.299463	13.296169	-15.399916	-45.000000	-32.400138	45.000000	-45.000000	-4222.561661	-95.796341	136.745691	-132.440033	1068.877508	401.143421	12.438572	-13.612459	
4.1400	24.999335	35.818104	50.404743	82.454231	774.947316	-44.443714	13.014726	36.312824	28.458162	45.000000	-45.000000	-439.775222	-3710.692179	159.514362	18.753997	1.104346	165.073630	11.302456	13.306226	-15.226566	-45.000000	-32.404918	45.000000	-45.000000	-4222.528287	-95.802069	136.787420	-132.734299	1068.857588	401.082585	12.401338	-13.710795	
4.1500	25.122170	35.917169	50.175782	81.792515	774.511935	-44.660992	12.963228	36.339701	28.420936	45.000000	-45.000000	-439.848263	-3710.663293	159.527434	19.054908	1.155039	164.827502	11.283772	13.304018	-15.151747	-45.000000	-32.415700	45.000000	-45.000000	-4222.478741	-95.796060	136.823911	-132.973949	1068.843112	401.064510	12.373028	-13.778223	
4.1600	25.247804	36.007092	49.953105	81.017608	774.087415	-44.870895	12.926843	36.356441	28.398000	45.000000	-45.000000	-439.919746	-3710.626966	159.559825	19.343481	1.195845	164.576836	11.258359	13.295867	-15.116055	-45.000000	-32.434736	45.000000	-45.000000	-4222.415594	-95.786386	136.864961	-133.177781	1068.836429	401.092885	12.345716	-13.834476	
4.1700	25.386638	36.085293	49.716530	80.113280	773.674883	-45.071837	12.898680	36.378408	28.387401	45.000000	-45.000000	-439.996831	-3710.582260	159.601148	19.631450	1.224381	164.335649	11.233078	13.287384	-15.092286	-45.000000	-32.459903	45.000000	-45.000000	-4222.352261	-95.775004	136.909442	-133.354794	1068.839753	401.173621	12.312999	-13.895046	
4.1800	25.530128	36.151693	49.476470	79.076040	773.274073	-45.262788	12.877122	36.392568	28.374431	45.000000	-45.000000	-440.075104	-3710.525481	159.644789	19.927607	1.239673	164.127180	11.208342	13.273597	-15.085785	-45.000000	-32.491724	45.000000	-45.000000	-4222.276852	-95.757557	136.952178	-133.515325	1068.850922	401.311298	12.279232	-13.949085	
4.1900	25.682106	36.209035	49.222213	77.908150	772.884323	-45.442979	12.854427	36.413128	28.357943	45.000000	-45.000000	-440.168508	-3710.461055	159.677667	20.238891	1.243865	163.970911	11.193780	13.260994	-15.053238	-45.000000	-32.523482	45.000000	-45.000000	-4222.203526	-95.734722	136.994939	-133.677495	1068.868692	401.502866	12.238288	-14.015759	
4.2000	25.829904	36.257191	48.967554	76.611997	772.505334	-45.611718	12.836318	36.422824	28.329580	45.000000	-45.000000	-440.263775	-3710.391445	159.704601	20.558753	1.243637	163.883837	11.184964	13.244258	-15.024347	-45.000000	-32.557413	45.000000	-45.000000	-4222.121162	-95.700065	137.032758	-133.840951	1068.889572	401.747952	12.197155	-14.078140	
4.2100	25.971556	36.299202	48.712094	75.189964	772.137245	-45.768473	12.826740	36.424005	28.290202	45.000000	-45.000000	-440.369493	-3710.323333	159.718053	20.876519	1.247318	163.873317	11.184256	13.227098	-14.975963	-45.000000	-32.588051	45.000000	-45.000000	-4222.038192	-95.650671	137.067797	-134.014103	1068.910252	402.040711	12.152887	-14.145574	
4.2200	26.100294	36.335065	48.469100	73.644990	771.780770	-45.912880	12.821040	36.410553	28.241605	45.000000	-45.000000	-440.477922	-3710.257712	159.727458	21.186441	1.256867	163.945547	11.188666	13.206553	-14.927418	-45.000000	-32.621566	45.000000	-45.000000	-4221.943928	-95.588500	137.103158	-134.194096	1068.930188	402.374968	12.111681	-14.207818	
4.2300	26.222014	36.365617	48.232100	71.980358	771.437210	-46.044737	12.818766	36.390419	28.188120	45.000000	-45.000000	-440.594424	-3710.192968	159.730828	21.482073	1.271635	164.097646	11.200264	13.187705	-14.866130	-45.000000	-32.657378	45.000000	-45.000000	-4221.842468	-95.520496	137.140123	-134.384095	1068.951621	402.739361	12.070834	-14.274178	
4.2400	26.353182	36.382454	47.979765	70.200067	771.108511	-46.163959	12.791179	36.391417	28.143122	45.000000	-45.000000	-440.717708	-3710.129454	159.734348	21.774863	1.280488	164.327296	11.222574	13.174900	-14.806357	-45.000000	-32.700567	45.000000	-45.000000	-4221.738189	-95.458683	137.181046	-134.576180	1068.980591	403.119062	12.031949	-14.348595	
4.2500	26.494998	36.384517	47.708106	68.308240	770.796987	-46.270570	12.748965	36.406872	28.095829	45.000000	-45.000000	-440.848912	-3710.065096	159.725603	22.056488	1.287669	164.623585	11.251479	13.169611	-14.744749	-45.000000	-32.746581	45.000000	-45.000000	-4221.630693	-95.402247	137.217248	-134.774381	1069.015892	403.501034	11.994197	-14.429891	
4.2600	26.652410	36.369026	47.411462	66.309568	770.505261	-46.364602	12.681390	36.448882	28.056404	45.000000	-45.000000	-440.988424	-3710.003376	159.714201	22.329939	1.287140	164.972482	11.287580	13.174870	-14.688330	-45.000000	-32.798861	45.000000	-45.000000	-4221.521470	-95.357208	137.251182	-134.980317	1069.061047	403.871907	11.958684	-14.520169	
4.2700	26.808051	36.342766	47.112932	64.208463	770.235827	-46.446037	12.621667	36.483201	28.008304	45.000000	-45.000000	-441.127535	-3709.940577	159.699731	22.585131	1.289838	165.352661	11.324655	13.186233	-14.626779	-45.000000	-32.852785	45.000000	-45.000000	-4221.403725	-95.310408	137.277768	-135.202486	1069.106764	404.225879	11.924615	-14.612048	
4.2800	26.965231	36.305300	46.812633	62.009273	769.990919	-46.514706	12.552144	36.526250	27.966036	45.000000	-45.000000	-441.274902	-3709.881371	159.689653	22.829475	1.287734	165.746131	11.365758	13.204497	-14.564158	-45.000000	-32.909912	45.000000	-45.000000	-4221.280724	-95.265621	137.306523	-135.438218	1069.156410	404.556588	11.893518	-14.708286	
4.2900	27.110163	36.260167	46.527436	59.715694	769.772302	-46.570173	12.501713	36.546884	27.910156	45.000000	-45.000000	-441.417384	-3709.819465	159.679473	23.058952	1.292647	166.136422	11.404371	13.224632	-14.490091	-45.000000	-32.969789	45.000000	-45.000000	-4221.147552	-95.212011	137.332954	-135.689976	1069.200413	404.864817	11.863607	-14.801528	
4.3000	27.247613	36.206323	46.253329	57.331230	769.581492	-46.611661	12.457964	36.557386	27.853062	45.000000	-45.000000	-441.558657	-3709.756770	159.677731	23.278399	1.297409	166.512419	11.441994	13.247337	-14.409552	-45.000000	-33.033161	45.000000	-45.000000	-4221.007517	-95.153458	137.362925	-135.955960	1069.242138	405.149416	11.834653	-14.894194	
4.3100	27.370019	36.143797	45.999642	54.859166	769.419907	-46.638077	12.439448	36.537993	27.782572	45.000000	-45.000000	-441.686355	-3709.687589	159.682206	23.489812	1.306899	166.865700	11.475389	13.266854	-14.315925	-45.000000	-33.097253	45.000000	-45.000000	-4220.859087	-95.081190	137.394169	-136.232075	1069.272099	405.413300	11.806569	-14.980708	
4.3200	27.484948	36.070663	45.756528	52.302581	769.289250	-46.648204	12.430206	36.505424	27.711803	45.000000	-45.000000	-441.803994	-3709.612722	159.702452	23.700523	1.311882	167.193123	11.506921	13.283850	-14.215346	-45.000000	-33.161021	45.000000	-45.000000	-4220.708194	-94.999328	137.429918	-136.513386	1069.294547	405.655636	11.780610	-15.064588	
4.3300	27.598050	35.983025	45.515020	49.665206	769.191754	-46.641004	12.421871	36.470828	27.639240	45.000000	-45.000000	-441.921643	-3709.536142	159.722956	23.913932	1.315216	167.495097	11.535657	13.300291	-14.110132	-45.000000	-33.225181	45.000000	-45.000000	-4220.555534	-94.914074	137.465631	-136.791298	1069.311391	405.876349	11.755662	-15.146165	
